# xmcd
#
# Track frame offsets: 
#        150
#        20752
#        62375
#        106567
#        154692
#        166992
#        201845
#        236110
#
# Disc length: 3404 seconds
#
# Revision: 16
# Processed by: cddbd v1.5.2PL0 Copyright (c) Steve Scherf et al.
# Submitted via: ExactAudioCopy v1.0b2
#
DISCID=5c0d4a08
DTITLE=Various Artist - Space Battleship Yamato Eternal Edition File No.0
DYEAR=2000
DGENRE=Soundtrack
TTITLE0=Overture: A.D. 3199
TTITLE1=DARQUEEN The Queen of Darkness 
TTITLE2=YAMATO The legend Space Battleship I: The History of Naval Bat
TTITLE2=tle in Space
TTITLE3=YAMATO The legend Space Battleship II: Triumphant Return
TTITLE4=Theme of HAGURO YO
TTITLE5=War and Remembrance
TTITLE6=Departure of GREAT YAMATO
TTITLE7=Great Love ~ Scarlet Scarf: A Romantic Chamber Version
EXTD=YEAR: 2000.9.30
EXTT0=
EXTT1=
EXTT2=
EXTT3=
EXTT4=
EXTT5=
EXTT6=
EXTT7=
PLAYORDER=
